<?xml version="1.0" encoding="utf-8"?>
<!-- Generator: Adobe Illustrator 15.1.0, SVG Export Plug-In  -->
<!DOCTYPE svg PUBLIC "-//W3C//DTD SVG 1.1//EN" "http://www.w3.org/Graphics/SVG/1.1/DTD/svg11.dtd" [
	<!ENTITY ns_flows "http://ns.adobe.com/Flows/1.0/">
]>
<svg version="1.1"
	 xmlns="http://www.w3.org/2000/svg" xmlns:xlink="http://www.w3.org/1999/xlink" xmlns:a="http://ns.adobe.com/AdobeSVGViewerExtensions/3.0/"
	 x="0px" y="0px" width="100px" height="100px" viewBox="-4.224 -9.92 100 100"
	 overflow="visible" enable-background="new -4.224 -9.92 100 100" xml:space="preserve">
<defs>
</defs>
<g>
	<defs>
		<rect id="SVGID_1_" y="0.002" width="91.554" height="80.141"/>
	</defs>
	<clipPath id="SVGID_2_">
		<use xlink:href="#SVGID_1_"  overflow="visible"/>
	</clipPath>
	<path clip-path="url(#SVGID_2_)" fill="#FFFFFF" d="M45.776,78.745l8.796-3.294c0,0-1.189-7.814-0.95-11.889
		c0.164-2.766-1.441-9.616,5.86-12.412c7.309-2.79,10.889-6.865,7.569-11.232c-1.732-2.276-4.273,0.092-9.907,1.991
		c-5.477,1.848-5.225-4.247-1.894-11.229c3.844-8.054,4.898-11.047,0.979-13.672c-5.172-3.459-8.749,1.861-9.281,6.51
		c-0.532,4.659,0.725,11.144-2.279,10.581c-5.209-0.975-6.306-8.221-9.223-6.773c-6.353,3.157-4.836,9.691,2.713,15.239
		c3.947,2.9,3.866,10.905,1.841,10.704c-2.365-0.229-5.585-5.66-9.174-3.82c-3.451,1.092-5.486,4.184,1.188,10.37
		c3.896,3.609,6.881,3.404,9.21,9.532c0.913,2.4,0.515,2.858,0.274,7.792L45.776,78.745z M0,17.207L45.779,0l45.774,17.376v45.605
		L45.779,80.143L0,62.981V17.207z"/>
</g>
</svg>
